<svg width="36" height="35" viewBox="0 0 36 35" fill="none" xmlns="http://www.w3.org/2000/svg">
<path d="M5 35V0H23V9H32V35H5Z" fill="#D9D9D9"/>
<path d="M23 9V0L32 9H23Z" fill="#A9A9A9"/>
<path d="M10.2256 11L10.2256 31C15.7903 30.7047 20.2256 26.3259 20.2256 20.9721C20.2256 15.6184 15.7903 11.2953 10.2256 11Z" fill="black"/>
<path d="M17.2666 10.959C23.002 11.2549 27.5741 15.5865 27.5742 20.9512C27.5742 26.3159 23.002 30.7041 17.2666 31V30.2578C20.7525 28.3998 23.1054 24.9272 23.1055 20.9492C23.1055 16.9709 20.7528 13.5259 17.2666 11.6855V10.959Z" fill="black"/>
</svg>
